<?xml version="1.0" encoding="UTF-8" standalone="no"?>
<!DOCTYPE svg PUBLIC "-//W3C//DTD SVG 1.1//EN" "http://www.w3.org/Graphics/SVG/1.1/DTD/svg11.dtd">
<svg width="100%" height="100%" viewBox="0 0 1024 1024" version="1.1" xmlns="http://www.w3.org/2000/svg" xmlns:xlink="http://www.w3.org/1999/xlink" xml:space="preserve" xmlns:serif="http://www.serif.com/" style="fill-rule:evenodd;clip-rule:evenodd;stroke-linejoin:round;stroke-miterlimit:2;">
    <g id="Highlighted-Code" serif:id="Highlighted Code">
        <g transform="matrix(0.883235,-2.79492e-17,-2.79492e-17,0.997346,90.7902,587.43)">
            <path d="M307.63,132.763C307.63,123.998 299.594,116.881 289.696,116.881L99.124,116.881C89.226,116.881 81.19,123.998 81.19,132.763L81.19,149.127C81.19,157.892 89.226,165.009 99.124,165.009L289.696,165.009C299.594,165.009 307.63,157.892 307.63,149.127L307.63,132.763Z" style="fill:rgb(240,99,75);"/>
        </g>
        <g transform="matrix(1.3646,-4.31815e-17,-2.79492e-17,0.997346,156.708,515.43)">
            <path d="M307.63,132.763C307.63,123.998 302.429,116.881 296.022,116.881L92.798,116.881C86.391,116.881 81.19,123.998 81.19,132.763L81.19,149.127C81.19,157.892 86.391,165.009 92.798,165.009L296.022,165.009C302.429,165.009 307.63,157.892 307.63,149.127L307.63,132.763Z" style="fill:rgb(0,205,115);"/>
        </g>
        <g transform="matrix(0.772831,5.21375e-19,6.74699e-19,0.997346,204.754,443.43)">
            <path d="M307.63,132.763C307.63,123.998 298.446,116.881 287.134,116.881L101.686,116.881C90.374,116.881 81.19,123.998 81.19,132.763L81.19,149.127C81.19,157.892 90.374,165.009 101.686,165.009L287.134,165.009C298.446,165.009 307.63,157.892 307.63,149.127L307.63,132.763Z" style="fill:rgb(190,196,200);"/>
        </g>
        <g transform="matrix(0.419537,-1.93828e-17,-3.87657e-17,0.997346,233.438,371.43)">
            <path d="M307.63,132.763C307.63,123.998 290.712,116.881 269.874,116.881L118.946,116.881C98.108,116.881 81.19,123.998 81.19,132.763L81.19,149.127C81.19,157.892 98.108,165.009 118.946,165.009L269.874,165.009C290.712,165.009 307.63,157.892 307.63,149.127L307.63,132.763Z" style="fill:rgb(190,196,200);"/>
        </g>
        <g transform="matrix(0.883235,-2.79492e-17,-2.79492e-17,0.997346,195.79,227.43)">
            <path d="M307.63,132.763C307.63,123.998 299.594,116.881 289.696,116.881L99.124,116.881C89.226,116.881 81.19,123.998 81.19,132.763L81.19,149.127C81.19,157.892 89.226,165.009 99.124,165.009L289.696,165.009C299.594,165.009 307.63,157.892 307.63,149.127L307.63,132.763Z" style="fill:rgb(243,197,23);"/>
        </g>
        <g transform="matrix(0.662426,-8.20317e-17,-8.20317e-17,0.997346,108.718,155.43)">
            <path d="M307.63,132.763C307.63,123.998 296.915,116.881 283.718,116.881L105.102,116.881C91.905,116.881 81.19,123.998 81.19,132.763L81.19,149.127C81.19,157.892 91.905,165.009 105.102,165.009L283.718,165.009C296.915,165.009 307.63,157.892 307.63,149.127L307.63,132.763Z" style="fill:rgb(240,99,75);"/>
        </g>
        <g transform="matrix(0.401872,-1.27169e-17,-2.79492e-17,0.997346,343.872,587.43)">
            <path d="M307.63,132.763C307.63,123.998 289.968,116.881 268.214,116.881L120.606,116.881C98.852,116.881 81.19,123.998 81.19,132.763L81.19,149.127C81.19,157.892 98.852,165.009 120.606,165.009L268.214,165.009C289.968,165.009 307.63,157.892 307.63,149.127L307.63,132.763Z" style="fill:rgb(190,196,200);"/>
        </g>
        <g transform="matrix(1.23653,-3.75599e-17,-2.69521e-17,0.997346,276.106,371.43)">
            <path d="M307.63,132.763C307.63,123.998 301.89,116.881 294.82,116.881L94,116.881C86.93,116.881 81.19,123.998 81.19,132.763L81.19,149.127C81.19,157.892 86.93,165.009 94,165.009L294.82,165.009C301.89,165.009 307.63,157.892 307.63,149.127L307.63,132.763Z" style="fill:rgb(47,71,94);"/>
        </g>
        <g transform="matrix(1.45734,-6.32157e-17,-3.67533e-17,0.997346,128.179,299.43)">
            <path d="M307.63,132.763C307.63,123.998 302.76,116.881 296.761,116.881L92.059,116.881C86.06,116.881 81.19,123.998 81.19,132.763L81.19,149.127C81.19,157.892 86.06,165.009 92.059,165.009L296.761,165.009C302.76,165.009 307.63,157.892 307.63,149.127L307.63,132.763Z" style="fill:rgb(36,153,219);"/>
        </g>
        <g transform="matrix(1.67815,-7.03849e-17,-3.57149e-17,0.997346,345.251,227.43)">
            <path d="M307.63,132.763C307.63,123.998 303.401,116.881 298.191,116.881L90.629,116.881C85.419,116.881 81.19,123.998 81.19,132.763L81.19,149.127C81.19,157.892 85.419,165.009 90.629,165.009L298.191,165.009C303.401,165.009 307.63,157.892 307.63,149.127L307.63,132.763Z" style="fill:rgb(190,196,200);"/>
        </g>
        <g transform="matrix(1.10404,-2.76297e-17,-2.26457e-17,0.997346,236.863,155.43)">
            <path d="M307.63,132.763C307.63,123.998 301.201,116.881 293.283,116.881L95.537,116.881C87.619,116.881 81.19,123.998 81.19,132.763L81.19,149.127C81.19,157.892 87.619,165.009 95.537,165.009L293.283,165.009C301.201,165.009 307.63,157.892 307.63,149.127L307.63,132.763Z" style="fill:rgb(47,71,94);"/>
        </g>
        <g transform="matrix(1.05988,-1.82146e-17,-1.60161e-17,0.997346,504.448,515.43)">
            <path d="M307.63,132.763C307.63,123.998 300.933,116.881 292.685,116.881L96.135,116.881C87.887,116.881 81.19,123.998 81.19,132.763L81.19,149.127C81.19,157.892 87.887,165.009 96.135,165.009L292.685,165.009C300.933,165.009 307.63,157.892 307.63,149.127L307.63,132.763Z" style="fill:rgb(190,196,200);"/>
        </g>
        <g transform="matrix(1.45734,2.01641e-16,-3.91387e-17,0.997346,338.179,443.43)">
            <path d="M307.63,132.763C307.63,123.998 302.76,116.881 296.761,116.881L92.059,116.881C86.06,116.881 81.19,123.998 81.19,132.763L81.19,149.127C81.19,157.892 86.06,165.009 92.059,165.009L296.761,165.009C302.76,165.009 307.63,157.892 307.63,149.127L307.63,132.763Z" style="fill:rgb(238,128,49);"/>
        </g>
        <g transform="matrix(0.883235,-2.79492e-17,-2.79492e-17,0.997346,518.79,299.43)">
            <path d="M307.63,132.763C307.63,123.998 299.594,116.881 289.696,116.881L99.124,116.881C89.226,116.881 81.19,123.998 81.19,132.763L81.19,149.127C81.19,157.892 89.226,165.009 99.124,165.009L289.696,165.009C299.594,165.009 307.63,157.892 307.63,149.127L307.63,132.763Z" style="fill:rgb(238,128,48);"/>
        </g>
        <g transform="matrix(0.309132,-1.10153e-17,-3.10249e-17,0.997346,565.402,155.43)">
            <path d="M307.63,132.763C307.63,123.998 284.67,116.881 256.389,116.881L132.431,116.881C104.15,116.881 81.19,123.998 81.19,132.763L81.19,149.127C81.19,157.892 104.15,165.009 132.431,165.009L256.389,165.009C284.67,165.009 307.63,157.892 307.63,149.127L307.63,132.763Z" style="fill:rgb(190,196,200);"/>
        </g>
        <g transform="matrix(0.309132,-1.10153e-17,-3.10249e-17,0.997346,137.402,299.43)">
            <path d="M307.63,132.763C307.63,123.998 284.67,116.881 256.389,116.881L132.431,116.881C104.15,116.881 81.19,123.998 81.19,132.763L81.19,149.127C81.19,157.892 104.15,165.009 132.431,165.009L256.389,165.009C284.67,165.009 307.63,157.892 307.63,149.127L307.63,132.763Z" style="fill:rgb(159,89,183);"/>
        </g>
    </g>
</svg>
